<svg width="578" height="142" viewBox="0 0 578 142" fill="none" xmlns="http://www.w3.org/2000/svg">
<path d="M197.123 43.025V98H206.348V43.025H197.123ZM194.348 72.725H174.473V43.025H165.248V72.725V81.95V98H174.473V81.95H192.548L194.348 72.725ZM235.106 98C250.856 98 256.481 88.25 256.481 79.85V43.025H247.256V79.85C247.256 85.625 242.981 88.85 235.106 88.85C227.231 88.85 223.106 85.775 223.106 80V43.025H213.881V80C213.881 84.875 215.681 89.3 218.831 92.45C222.581 96.125 228.056 98 235.106 98ZM296.678 65.15C299.228 62.825 300.878 59.45 300.878 55.7C300.878 48.725 295.178 43.025 288.203 43.025H263.903V98H292.028C301.253 98 308.753 90.5 308.753 81.2C308.753 73.625 303.653 67.175 296.678 65.15ZM273.128 51.275H286.103C288.578 51.275 290.528 53.3 290.528 55.7C290.528 58.175 288.578 60.2 286.103 60.2H273.128V51.275ZM289.853 88.925H273.053V72.125H289.853C294.503 72.125 298.328 75.875 298.328 80.525C298.328 85.175 294.503 88.925 289.853 88.925ZM358.65 63.5C358.65 52.175 349.5 43.025 338.25 43.025H316.2V47.675V52.325V98H325.425V52.325H338.25C344.4 52.325 349.425 57.35 349.425 63.5C349.425 69.65 344.4 74.675 338.25 74.675H327L328.875 83.9H336.15L346.5 98H357.975L346.425 82.25C353.625 79.025 358.65 71.825 358.65 63.5ZM393.599 43.025L366.074 98H421.049L393.599 43.025ZM393.599 61.775L407.474 89.6H379.724L393.599 61.775ZM458.7 74.15L428.7 43.025V98H437.025V64.25L458.7 86.675V74.15ZM461.325 43.025V76.775V89.375L469.65 98V43.025H461.325ZM517.461 83.3C514.161 86.525 509.661 88.55 504.711 88.55C494.736 88.55 486.636 80.45 486.636 70.55C486.636 60.575 494.736 52.475 504.711 52.475C509.661 52.475 514.161 54.5 517.461 57.8L524.136 51.125C519.186 46.1 512.286 43.025 504.711 43.025C489.486 43.025 477.186 55.325 477.186 70.55C477.186 85.7 489.486 98 504.711 98C512.286 98 519.111 94.925 524.136 89.975L517.461 83.3ZM508.986 70.55C508.986 72.95 507.036 74.9 504.636 74.9C502.236 74.9 500.211 72.95 500.211 70.55C500.211 68.075 502.236 66.125 504.636 66.125C507.036 66.125 508.986 68.075 508.986 70.55ZM563.627 43.025V98H572.852V43.025H563.627ZM560.852 72.725H540.977V43.025H531.752V72.725V81.95V98H540.977V81.95H559.052L560.852 72.725Z" fill="white"/>
<rect x="70.7109" y="54.9983" width="22.2222" height="22.2222" transform="rotate(45 70.7109 54.9983)" fill="#FF530D"/>
<rect width="11.1111" height="11.1111" transform="matrix(0.707107 0.707107 0.707107 -0.707107 23.5703 54.9988)" fill="#D60000"/>
<rect width="11.1111" height="11.1111" transform="matrix(0.707107 0.707107 0.707107 -0.707107 102.137 86.4253)" fill="#FFC801"/>
<rect width="13.8889" height="13.8889" transform="matrix(0.707107 0.707107 0.707107 -0.707107 23.5703 86.4253)" fill="#D60000"/>
<rect width="13.8889" height="13.8889" transform="matrix(0.707107 0.707107 0.707107 -0.707107 100.173 56.9622)" fill="#FFC801"/>
<rect width="19.4444" height="19.4444" transform="matrix(0.707107 0.707107 0.707107 -0.707107 0 70.7114)" fill="#D60000"/>
<rect width="19.4444" height="19.4444" transform="matrix(0.707107 0.707107 0.707107 -0.707107 113.924 70.7114)" fill="#FFC801"/>
<path d="M106.066 39.2848L70.7109 3.92944L56.9616 17.6787L35.3556 39.2848L51.0691 54.9983L70.7109 35.3564L90.3528 54.9983L106.066 39.2848Z" fill="#93C700"/>
<path d="M35.3556 102.139L70.7109 137.494L84.4602 123.745L106.066 102.139L90.3528 86.4251L70.7109 106.067L51.0691 86.4251L35.3556 102.139Z" fill="#0E99DA"/>
</svg>
